<?xml version="1.0" encoding="UTF-8" standalone="no"?>
<svg
   xmlns:dc="http://purl.org/dc/elements/1.1/"
   xmlns:cc="http://creativecommons.org/ns#"
   xmlns:rdf="http://www.w3.org/1999/02/22-rdf-syntax-ns#"
   xmlns:svg="http://www.w3.org/2000/svg"
   xmlns="http://www.w3.org/2000/svg"
   xmlns:sodipodi="http://sodipodi.sourceforge.net/DTD/sodipodi-0.dtd"
   xmlns:inkscape="http://www.inkscape.org/namespaces/inkscape"
   version="1.1"
   id="svg2"
   inkscape:version="0.91 r13725"
   sodipodi:docname="rapidpro_logo.svg"
   width="1712"
   height="481">
  <metadata
     id="metadata10">
    <rdf:RDF>
      <cc:Work
         rdf:about="">
        <dc:format>image/svg+xml</dc:format>
        <dc:type
           rdf:resource="http://purl.org/dc/dcmitype/StillImage" />
        <dc:title></dc:title>
      </cc:Work>
    </rdf:RDF>
  </metadata>
  <defs
     id="defs8" />
  <sodipodi:namedview
     pagecolor="#000000"
     bordercolor="#666666"
     borderopacity="1"
     objecttolerance="10"
     gridtolerance="10"
     guidetolerance="10"
     inkscape:pageopacity="0"
     inkscape:pageshadow="2"
     inkscape:window-width="1440"
     inkscape:window-height="781"
     id="namedview6"
     showgrid="false"
     fit-margin-top="0"
     fit-margin-left="0"
     fit-margin-right="0"
     fit-margin-bottom="0"
     inkscape:zoom="0.2085965"
     inkscape:cx="509.19353"
     inkscape:cy="100.58102"
     inkscape:window-x="0"
     inkscape:window-y="550"
     inkscape:window-maximized="1"
     inkscape:current-layer="svg2" />
  <path
     d="M 54,407 0,407 0,0 l 254,0 0,207 -200,0 0,200 z m 103,-97 97,0 0,97 -97,0 0,-97 0,0 z m 97,-25 0,-54 -176,0 0,176 54,0 0,-122 122,0 z m 194,29 -71,0 0,93 -12,0 0,-225 75,0 q 17,0 29.5,4 12.5,4 20.5,12 8,7 12.5,19.5 4.5,12.5 4.5,29.5 0,13 -2.5,24 -2.5,11 -8.5,19 -5,9 -14,14.5 -9,5.5 -22,7.5 l 51,95 -13,0 -50,-93 0,0 z m -8,-121 -63,0 0,110 63,0 q 16,0 26.5,-4 10.5,-4 16.5,-11 6,-8 8.5,-18.5 2.5,-10.5 2.5,-22.5 0,-14 -3,-24 -3,-10 -10,-17 -7,-6 -17,-9.5 -10,-3.5 -24,-3.5 l 0,0 z m 241,193 q 1,7 8.5,10 7.5,3 15.5,3 l 0,10 q -6,0 -10.5,-0.5 Q 690,408 685,407 681,405 677.5,402.5 674,400 672,397 l -19.5,6.5 q 0,0 -47.5,6.5 -9,0 -16.5,-3 -7.5,-3 -12.5,-9 -6,-6 -8.5,-14.5 Q 565,375 565,363 q 0,-10 2.5,-18 2.5,-8 7.5,-14 5,-6 13.5,-9.5 Q 597,318 609,317 l 61,-7 0,-16 q 0,-11 -2.5,-18.5 Q 665,268 661,264 q -5,-5 -11.5,-7 -6.5,-2 -15.5,-2 -17,0 -38.5,2.5 l -21.5,2.5 -1,-11 21,-2.5 q 0,0 40,-2.5 12,0 21,3 9,3 15,9 6,7 8.5,16 2.5,9 2.5,22 l 0,92 0,0 z m -71,-59 q -9,1 -15.5,4 -6.5,3 -10.5,7 -4,5 -5.5,11.5 -1.5,6.5 -1.5,13.5 0,9 2,15.5 2,6.5 5,11.5 4,5 9.5,7.5 5.5,2.5 12.5,2.5 24,0 44,-6.5 l 20,-6.5 0,-66 -60,6 0,0 z m 147,-80 11,0 0,13 17,-8 q 0,0 39,-8 14,0 26.5,5 12.5,5 21.5,15 9,10 14,25 5,15 5,35 0,23 -5.5,39 -5.5,16 -16.5,26 -10,11 -25,16 -15,5 -33,5 -13,0 -25,-2 l -18,-3 0,76 -11,0 0,-234 0,0 z m 11,24 0,124 q 5,1 17.5,3 12.5,2 25.5,2 15,0 27.5,-4.5 Q 851,391 860,382 q 9,-9 14,-23.5 5,-14.5 5,-34.5 0,-20 -5,-33 -5,-13 -12,-21 -8,-9 -18,-12.5 -10,-3.5 -20,-3.5 -21,0 -38.5,8.5 l -17.5,8.5 0,0 z m 194,-67 11,0 0,12 -11,0 0,-12 0,0 z m 0,43 11,0 0,160 -11,0 0,-160 0,0 z m 209,160 -11,0 0,-14 -16.5,8.5 q 0,0 -38.5,8.5 -8,0 -19,-2 -11,-2 -22,-9 -11,-8 -18.5,-24.5 -7.5,-16.5 -7.5,-45.5 0,-21 5,-37 5,-16 15,-26 10,-11 25,-16.5 15,-5.5 35,-5.5 11,0 23.5,1.5 12.5,1.5 18.5,2.5 l 0,-66 11,0 0,225 0,0 z m -11,-24 0,-125 q -6,-1 -19.5,-2.5 -13.5,-1.5 -22.5,-1.5 -17,0 -30,5 -13,5 -21,15 -9,9 -13,23.5 -4,14.5 -4,32.5 0,24 6,38 6,14 14,21 9,7 18.5,9 9.5,2 16.5,2 20,0 37.5,-8.5 l 17.5,-8.5 0,0 z m 120,-39 0,63 -44,0 0,-221 74,0 q 19,0 33.5,4.5 14.5,4.5 24.5,14.5 9,10 14,24.5 5,14.5 5,33.5 0,19 -5,34 -5,15 -14,26 -10,10 -24.5,15.5 -14.5,5.5 -33.5,5.5 l -30,0 0,0 z m 29,-43 q 9,0 15,-2.5 6,-2.5 10,-7.5 4,-5 6,-12 2,-7 2,-16 0,-9 -2,-15.5 -2,-6.5 -6,-10.5 -4,-5 -10,-7 -6,-2 -15,-2 l -29,0 0,73 29,0 0,0 z m 165,-39 -1,0 0,0 0,-15 -43,0 0,160 43,0 0,-104 12,-5 q 0,0 33,-9 l 0,-41 q -16,3 -29,8 -13,5 -15,6 l 0,0 z m 154,-19 q -17,0 -32.5,6.5 -15.5,6.5 -26.5,18.5 -11,11 -18,26.5 -7,15.5 -7,32.5 0,17 7,32.5 7,15.5 18,26.5 11,12 26.5,18.5 15.5,6.5 32.5,6.5 18,0 33,-6.5 15,-6.5 27,-18.5 11,-11 17.5,-26.5 6.5,-15.5 6.5,-32.5 0,-17 -6.5,-32.5 Q 1699,279 1688,268 q -12,-12 -27,-18.5 -15,-6.5 -33,-6.5 l 0,0 z m 0,126 q -9,0 -16.5,-3 -7.5,-3 -13.5,-9 -6,-6 -9,-13.5 -3,-7.5 -3,-16.5 0,-9 3,-17 3,-8 9,-13 6,-6 13.5,-9.5 7.5,-3.5 16.5,-3.5 9,0 16.5,3.5 7.5,3.5 13.5,9.5 6,5 9.5,13 3.5,8 3.5,17 0,9 -3.5,16.5 -3.5,7.5 -9.5,13.5 -6,6 -13.5,9 -7.5,3 -16.5,3 l 0,0 z"
     id="path4"
     inkscape:connector-curvature="0"
     style="fill:#ffffff" />
</svg>
